<?xml version="1.0" encoding="UTF-8" standalone="no"?>
<!DOCTYPE svg PUBLIC "-//W3C//DTD SVG 1.1//EN" "http://www.w3.org/Graphics/SVG/1.1/DTD/svg11.dtd">
<svg width="100%" height="100%" viewBox="0 0 2093 780" version="1.1" xmlns="http://www.w3.org/2000/svg" xmlns:xlink="http://www.w3.org/1999/xlink" xml:space="preserve" xmlns:serif="http://www.serif.com/" style="fill-rule:evenodd;clip-rule:evenodd;stroke-linejoin:round;stroke-miterlimit:2;">
    <g id="Artboard1" transform="matrix(0.9929,0,0,0.964522,-0.322053,0.213032)">
        <rect x="0.324" y="-0.221" width="2107.12" height="807.743" style="fill:none;"/>
        <g id="Layer-1" serif:id="Layer 1" transform="matrix(4.19646,0,0,4.31993,-1.47005,-1.87407)">
            <g transform="matrix(1,0,0,1,-52.8345,-156.255)">
                <path d="M421.637,237.322C424.196,239.368 425.954,242.27 427.32,245.599C423.755,247.519 417.03,246.742 417.928,241.304C407.521,242.928 400.257,244.965 390.281,243.813C389.642,240.999 388.54,237.812 390.784,236.091C397.972,242.193 412.909,237.367 421.637,237.322" style="fill:rgb(255,255,255);"/>
            </g>
            <g transform="matrix(1,0,0,1,-52.8345,-149.355)">
                <path d="M143.311,223.211C126.214,235.242 112.81,245.825 98.226,255.6C101.758,258.015 85.424,263.46 84.065,269.19C96.943,275.002 107.347,281.462 118.67,289.548C122.735,292.452 127.817,294.619 132.018,296.784C137.283,299.499 143.107,301.293 146.931,304.734C147.595,304.114 148.639,303.849 149.981,303.858C147.919,309.353 138.421,305.73 133.029,303.684C127.288,301.501 121.131,297.584 118.088,294.962C107.242,286.105 90.466,283.61 80.379,273.94C72.845,291.229 61.994,298.752 59.737,322.423C62.427,322.945 62.653,321.173 65.096,321.464C65.792,325.588 62.102,325.618 58.305,325.553C53.836,319.531 57.008,307.679 62.114,302.311C66.06,290.359 71.809,280.091 77.938,270.176C77.628,268.378 76.62,267.329 76.979,264.815C98.51,240.981 109.834,207.629 129.548,182.098C134.047,170.256 139.844,164.136 144.708,153.066C152.826,151.092 150.268,161.792 147.312,161.447C147.796,163.002 147.231,163.959 147.366,162.985C142.645,169.799 138.03,186.301 130.612,190.533C128.378,203.852 114.708,212.9 110.308,226.678C108.793,228.277 105.089,233.649 105.192,234.559C103.801,234.881 100.54,241.23 100.102,243.21C97.896,242.71 97.158,247.166 94.905,248.784C127.538,232.074 153.543,202.734 181.837,179.499C182.542,180.071 183.603,180.264 184.94,180.16C188.577,191.793 173.764,195.54 171.022,200.673C169.21,200.721 167.28,202.825 167.283,203.887C167.956,203.522 160.884,208.899 159.804,210.311C158.633,210.312 157.889,211.942 155.09,212.241C153.598,214.293 143.613,222.472 143.311,223.211" style="fill:rgb(255,255,255);"/>
            </g>
            <g transform="matrix(1,0,0,1,-52.8345,-62.9279)">
                <path d="M480.952,188.139C484.359,184.883 488.111,184.118 492.253,180.811C495.812,177.97 498.85,175.199 502.053,172.554C502.43,172.245 503.098,170.753 503.443,170.406C507.869,165.954 521.88,155.324 521.976,149.729C521.979,149.563 522.507,149.372 522.692,148.165C521.52,147 520.128,148.255 518.846,148.3C516.777,149.07 513.568,151.566 513.568,151.566C513.568,151.566 487.471,173.325 480.952,188.139M499.495,233.709C496.798,233.674 497.165,236.499 495.781,237.688C509.807,245.567 542.301,237.258 552.77,237.236C540.37,245.221 522.622,244.18 511.518,247.151C510.389,247.528 494.743,250.669 492.121,243.211C490.329,243.471 489.471,241.264 488.884,238.702C476.512,245.327 459.698,243.066 456.964,229.032C455.233,220.15 459.013,212.639 462.311,205.739C447.578,209.119 433.734,217.295 422.817,221.755C418.416,222.483 413.405,214.038 416.948,208.095C407.225,208.737 397.229,216.504 388.749,216.784C384.18,216.295 379.308,207.186 381.289,201.638C373.333,205.274 341.354,223.557 338.312,206.223C337.324,200.594 340.187,195.749 343.211,192.186C350.183,194.193 346.18,202.224 344.466,206.009C357.782,211.858 372.837,198.507 384.069,193.067C388.565,194.63 385.26,204.563 387.685,208.349C399.554,213.641 408.89,197.505 421.4,203.317C422.536,208.526 422.254,210.331 421.777,214.087C427.524,214.474 436.307,211.264 441.621,208.772C443.109,208.137 439.447,206.387 440.662,203.415C447.875,197.327 456.261,201.567 463.609,198.76C467.688,197.2 471.702,188.936 475.406,183.711C482.645,173.506 490.744,162.61 499.8,154.357C507.581,147.267 516.604,139.614 530.145,140.971C530.563,143.173 529.408,145.971 529.408,145.971C529.408,145.971 528.112,149.517 527.126,149.512C516.93,163.828 504.079,175.994 489.074,185.746C488.419,187.073 485.856,188.367 484.854,189.542C478.158,191.946 479.921,192.99 474.301,196.076C487.197,197.849 505.543,190.247 518.071,192.232C504.161,198.618 484.306,201.117 469.183,203.956C459.386,215.141 457.62,236.879 474.266,239.213C478.647,239.827 482.203,237.671 487.237,235.677C494.834,224.152 511.27,220.871 521.849,212.129C517.475,206.919 497.851,218.372 501.603,205.902C511.532,204.754 520.969,203.368 528.612,207.268C528.684,209.323 528.756,211.373 528.827,213.426C519.957,220.291 500.811,231.673 499.495,233.709" style="fill:rgb(255,255,255);"/>
            </g>
            <g transform="matrix(1,0,0,1,-52.8345,-140.109)">
                <path d="M375.05,166.576C377.924,171.091 376.204,179.579 377.21,184.215C373.363,198.726 368.986,217.214 359.511,228.743C348.548,254.726 327.134,269.726 309.184,287.505C295.913,292.554 284.522,304.619 267.273,300.524C265.735,298.183 263.669,296.409 261.672,294.557C261.046,284.732 258.341,282.331 260.973,274.554C250.311,281.915 243.224,294.243 230.184,297.201C223.944,291.157 231.156,276.853 235.315,267.75C243.045,250.827 257.857,233.327 264.421,218.973C268.499,217.316 268.104,211.492 273.385,210.956C277.866,217.192 269.744,222.348 266.999,226.585C258.237,240.102 248.61,255.468 239.296,271.462C237.467,280.563 232.416,282.53 231.534,291.76C268.162,280.075 266.083,236.312 292.781,214.9C295.785,215.136 295.231,219.19 296.1,221.717C288.547,228.564 280.858,243.054 274.945,255.579C269.753,266.576 261.22,280.751 266.181,291.318C269.413,298.205 279.544,296.208 287.804,292.872C306.754,285.223 330.153,265.173 343.229,247.799C355.751,231.162 365.954,213.099 372.887,192.84C371.27,186.83 377.221,176.494 372.134,171.299C347.699,177.158 338.975,193.72 336.052,218.778C332.773,203.391 340.422,186.484 349.984,176.696C355.625,170.923 365.01,162.845 375.05,166.576" style="fill:rgb(255,255,255);"/>
            </g>
            <g transform="matrix(1,0,0,1,-52.8345,-108.586)">
                <path d="M212.902,190.023C220.383,183.603 229.197,178.425 234.541,170.009C229.209,171.603 231.31,173.154 226.858,174.367C227.461,174.518 224.759,176.189 224.807,176.937C219.226,180.42 214.948,185.723 212.902,190.023M160.122,222.68C153.85,224.109 140.044,231.782 130.253,227.577C130.726,225.207 129.367,224.799 129.322,222.987C131.709,221.988 133.301,220.246 136.138,219.667C136.52,221.265 135.682,221.723 135.478,222.772C146.095,222.253 154.408,219.583 162.216,216.445C171.903,201.413 181.146,185.967 193.049,173C195.452,172.552 195.153,174.999 196.976,175.173C195.69,182.724 184.213,190.809 180.804,197.306C180.455,197.973 181.479,199.031 181.626,198.819C177.778,204.323 173.847,206.544 171.313,212.274C178.682,209.008 187.97,207.379 194.071,202.236C196.92,199.833 197.522,196.149 199.903,192.787C206.468,183.518 220.192,166.407 231.962,162.396C235.097,161.327 239.62,160.312 243.529,162.761C244.241,164.913 242.514,164.792 242.896,166.635C228.416,184.371 206.813,194.764 192.91,213.059C190.54,216.179 189.608,221.644 187.185,225.586C185.596,228.168 182.56,229.609 181.244,231.956C174.02,244.855 168.744,260.702 165.827,275.629C162.585,248.769 179.637,227.991 189.671,208.552C182.089,212.534 173.673,217.545 166.967,220.13C159.31,231.845 154.132,245.875 143.531,254.843C140.616,250.637 146.199,249.508 147.877,246.986C152.394,240.202 154.989,230.571 160.122,222.68" style="fill:rgb(255,255,255);"/>
            </g>
        </g>
    </g>
</svg>
